<?xml version="1.0" encoding="utf-8"?>
<!-- Generator: Adobe Illustrator 24.1.2, SVG Export Plug-In . SVG Version: 6.00 Build 0)  -->
<svg version="1.1" xmlns="http://www.w3.org/2000/svg" xmlns:xlink="http://www.w3.org/1999/xlink" x="0px" y="0px"
	 viewBox="0 0 3000 3000" style="enable-background:new 0 0 3000 3000;" xml:space="preserve">
<style type="text/css">
	.st0{fill:#FFFFFF;}
	.st1{fill:#FFD5D5;}
	.st2{fill:#262425;}
</style>
<g id="Background">
	<rect x="743.8" y="738.3" class="st0" width="1436.33" height="1414.32"/>
</g>
<g id="Logo">
	<circle class="st1" cx="1460.06" cy="1441.21" r="658.55"/>
	<path class="st2" d="M1916.57,1270.77l-78.09-46.56c-12.99-32.3-32.29-54.11-49.55-73.36l-1.95-2.18
		c-41.1-45.94-86.71-67.48-135.73-64.07c-61.82,4.32-123.79,48.89-179.78,128.85c-11.79-4.81-23.64-9.43-35.43-13.99
		c-94.51-36.71-183.79-71.38-235.26-211.77l-21.07-57.47l-7.35,60.78c-7.4,61.17-8.68,113.98-5.24,160.09
		c-19.49-22.65-35.91-49.44-49.52-81.24l-21.56-50.32l-6.56,54.34c-38.23,316.17,112.07,384.37,244.66,444.54
		c0.09,0.05,0.16,0.06,0.24,0.1c-13.21,50.06-20.46,118.9-27.48,185.71c-3.35,31.91-7.15,68.09-11.93,101.62
		c-6.37,1.02-12.63,1.97-18.75,2.92c-52.23,8-89.96,13.77-100.62,39.21c-8.79,20.97,7.36,43.35,12.67,50.7
		c16.44,22.79,40.55,51.53,67.31,51.53c3.15,0,6.35-0.4,9.58-1.26c29.64-7.89,44.65-49.17,55.73-117.59
		c23.29-4.12,47.75-9.38,72.23-17.15c210.56-66.8,250.77-214.32,286.25-344.46c24.86-91.22,46.7-171.24,124.14-208.74
		C1825.79,1252.5,1916.57,1270.77,1916.57,1270.77z M1257.6,1920.51c-6.94,1.85-22.63-7.4-45.47-39.05
		c-11.23-15.57-9.79-21.16-9.38-22.12c4.28-10.21,45.13-16.47,77.94-21.5c3.12-0.49,6.28-0.96,9.48-1.46
		C1282.27,1881.6,1271.94,1916.68,1257.6,1920.51z M1114.08,1127.76c16.55,27.58,35.98,50.95,58.61,70.76
		c25.56,157.39,113.31,225.24,193.27,286.94c17.36,13.39,34.19,26.39,49.83,39.88c-22.34-12.3-46.01-23.06-69.5-33.73
		C1224.6,1436.39,1099,1379.42,1114.08,1127.76z M1384.25,1786.16c-19.63,6.23-39.51,10.77-58.83,14.45
		c3.72-27.72,7.12-58.92,10.74-93.32c6.66-63.51,13.55-128.88,25.39-176.31c82.43,38.49,148.78,79.76,147.29,192.29
		C1476.49,1748.28,1435.99,1769.75,1384.25,1786.16z M1537.74,1697.97c-7.01-122.5-78.44-177.68-153.81-235.81
		c-100.42-77.47-204.03-157.4-187.6-411.76c57.96,110.01,144.78,143.73,229.07,176.47c94.14,36.57,183.08,71.13,232.04,211.64
		c-2.15,7.78-4.3,15.62-6.44,23.48C1628.16,1545.72,1604.8,1631.29,1537.74,1697.97z M1671,1393.02
		c-42.44-94.38-105.34-137.42-171.92-167.7c49.18-68.43,103.53-107.82,154.23-111.37c39.41-2.81,77.02,15.52,111.75,54.34l1.97,2.18
		c14.71,16.42,29.84,33.32,40.78,56.62C1728.53,1257.16,1694.77,1320.07,1671,1393.02z"/>
	<circle class="st2" cx="1669.25" cy="1214.32" r="24.76"/>
</g>
</svg>
